<?xml version="1.0" encoding="utf-8"?>
<!-- Generator: Adobe Illustrator 18.0.0, SVG Export Plug-In . SVG Version: 6.00 Build 0)  -->
<!DOCTYPE svg PUBLIC "-//W3C//DTD SVG 1.1//EN" "http://www.w3.org/Graphics/SVG/1.1/DTD/svg11.dtd">
<svg version="1.1" id="Layer_1" xmlns="http://www.w3.org/2000/svg" xmlns:xlink="http://www.w3.org/1999/xlink" x="0px" y="0px"
	 viewBox="0 0 500 500" enable-background="new 0 0 500 500" xml:space="preserve">
<path fill="#011D30" d="M380.9,127.6c133.9,182.3-69.3,385.5-251.6,251.6c-2.6-1.9-4.8-4.1-6.7-6.7
	C-11.3,190.2,191.9-13,374.2,120.9C376.7,122.7,379,125,380.9,127.6z"/>
<path fill="#FF9C00" d="M435.5,249.2c0-37-11.2-73.1-32.1-103.6v-44.8c0-1.5-1.2-2.7-2.7-2.7h-44.8c-62.3-42.6-144.5-42.6-206.8,0
	h-44.7c-0.7,0-1.4,0.3-1.9,0.8c-0.5,0.5-0.8,1.2-0.8,1.9v44.1c-43.5,62.7-43.5,145.8,0,208.5v44.3c0,1.5,1.2,2.7,2.7,2.7h44.6
	c62.7,42.8,145.2,42.5,207.6-0.7h44.1c1.5,0,2.7-1.2,2.7-2.7v0v-44.3C424.2,322.3,435.5,286.2,435.5,249.2z M94,249.2
	c0-87.4,70.9-158.3,158.3-158.3s158.3,70.9,158.3,158.3s-70.9,158.3-158.3,158.3l0,0l0,0C164.9,407.4,94.1,336.6,94,249.2z"/>
<path fill="#FF9C00" d="M154.3,169.8h56c-1.3,6.3-1.9,12.7-1.9,19.1c2.4,25.1,18.8,93.6,18.8,93.6l26.5-107.4l27.2,105.3
	c0,0,16.2-92.4,16.2-98.6c-0.7-4.6-3-8.9-6.5-11.9h59.2c-7.9,7.3-13.6,16.6-16.7,26.9c-5.3,20.4-23.3,122.9-23.3,129.4
	c0.3,6.7,2.7,13.1,6.9,18.4h-55.1c1.3-4.9,1.9-9.9,1.8-15c0-9.4-8.7-54.1-8.7-54.1s-11.2,46.3-11.2,54.7c0,5,1.2,10,3.6,14.4h-57.3
	c0,0,10.9-7.7,10.5-15c-1.2-21-30.7-130-32.6-138.4C166.2,182.6,161.4,174.9,154.3,169.8z"/>
</svg>
